<?xml version="1.0" encoding="UTF-8"?>
<svg version="1.1" xmlns="http://www.w3.org/2000/svg" width="1456" height="1456">
<path d="M0 0 C0 97.35 0 194.7 0 295 C16.83 295.99 16.83 295.99 34 297 C39.93881892 297.62873301 45.74246833 298.27746186 51.625 299.1875 C52.32716644 299.29259888 53.02933289 299.39769775 53.7527771 299.50598145 C123.76534198 310.01372858 192.01331155 336.67480323 249 379 C249.71381836 379.52980469 250.42763672 380.05960937 251.16308594 380.60546875 C263.48366617 389.79813916 275.26053936 399.49789503 286.62890625 409.84765625 C288.16663754 411.24352106 289.7155623 412.62719097 291.27734375 413.99609375 C296.77081293 418.8314435 302.00447349 423.89911969 307.1875 429.0625 C307.85281738 429.7232251 308.51813477 430.3839502 309.20361328 431.06469727 C313.67177677 435.54674393 317.87932814 440.1983567 322 445 C322.98515067 446.12936565 323.97080375 447.25829332 324.95703125 448.38671875 C331.60120498 456.04487657 337.95453999 463.85927575 344 472 C344.49612793 472.66483398 344.99225586 473.32966797 345.50341797 474.01464844 C400.93534414 548.57220995 428.8098345 635.81635905 433 728 C530.35 728 627.7 728 728 728 C728 771.14853163 728 771.14853163 726.8125 784.4375 C726.74720093 785.2198703 726.68190186 786.0022406 726.61462402 786.80831909 C720.27765624 862.71732369 702.43829488 937.57919384 661 1035 C660.56929199 1035.92699707 660.13858398 1036.85399414 659.69482422 1037.80908203 C647.09003722 1064.87008124 632.78275901 1090.69700224 617 1116 C616.3611084 1117.0297998 615.7222168 1118.05959961 615.06396484 1119.12060547 C608.21614084 1130.13916491 601.16061137 1140.88342586 593.33105469 1151.22900391 C591.47080751 1153.70410167 589.65179908 1156.20846363 587.83032227 1158.7121582 C579.55396336 1170.0785512 571.00302906 1181.19636512 562 1192 C561.35611328 1192.7734375 561.35611328 1192.7734375 560.69921875 1193.5625 C555.10469681 1200.26947731 549.40579026 1206.84785849 543.484375 1213.26953125 C541.51853586 1215.43009974 539.59110967 1217.61161094 537.67578125 1219.81640625 C534.01975274 1224.00603591 530.25248275 1228.08009641 526.4375 1232.125 C525.74785156 1232.85638184 525.05820313 1233.58776367 524.34765625 1234.34130859 C507.13106611 1252.52357286 507.13106611 1252.52357286 498.2421875 1260.0390625 C495.65453143 1262.30213454 493.16151011 1264.65301272 490.66162109 1267.01220703 C484.86959708 1272.47759699 479.02784666 1277.7580417 472.80078125 1282.73046875 C470.12402356 1284.89950114 467.51518629 1287.12806714 464.91357422 1289.38574219 C457.81792379 1295.54189209 450.52890927 1301.38194133 443 1307 C442.3080957 1307.51788086 441.61619141 1308.03576172 440.90332031 1308.56933594 C422.74987769 1322.13097885 404.31928508 1335.14647254 385 1347 C384.35788574 1347.39493652 383.71577148 1347.78987305 383.05419922 1348.19677734 C378.73108989 1350.84664712 374.37385739 1353.43492802 370 1356 C369.26716797 1356.4321582 368.53433594 1356.86431641 367.77929688 1357.30957031 C324.66124711 1382.65526734 279.30425583 1402.8515835 232 1419 C230.31970703 1419.57379395 230.31970703 1419.57379395 228.60546875 1420.15917969 C174.56250965 1438.43841585 118.66811778 1448.94569582 61.94140625 1454.23828125 C61.27294174 1454.30153091 60.60447723 1454.36478058 59.91575623 1454.4299469 C46.81683849 1455.61129228 33.77019391 1456.16557506 20.62109375 1456.203125 C19.09092683 1456.21014747 17.56076021 1456.21723428 16.03059387 1456.22438049 C11.16622496 1456.24378326 6.3019037 1456.24881477 1.4375 1456.25 C0.60860764 1456.25044186 -0.22028473 1456.25088371 -1.07429504 1456.25133896 C-25.41906794 1456.25814526 -49.62756915 1456.09576348 -73.83782959 1453.25323486 C-76.10412313 1452.98780503 -78.37149791 1452.73343373 -80.63916016 1452.47998047 C-157.00384095 1443.83593746 -232.31427714 1423.58709088 -307 1389 C-307.92699707 1388.56929199 -308.85399414 1388.13858398 -309.80908203 1387.69482422 C-336.87008124 1375.09003722 -362.69700224 1360.78275901 -388 1345 C-389.0297998 1344.3611084 -390.05959961 1343.7222168 -391.12060547 1343.06396484 C-402.13916491 1336.21614084 -412.88342586 1329.16061137 -423.22900391 1321.33105469 C-425.70410167 1319.47080751 -428.20846363 1317.65179908 -430.7121582 1315.83032227 C-442.0785512 1307.55396336 -453.19636512 1299.00302906 -464 1290 C-464.7734375 1289.35611328 -464.7734375 1289.35611328 -465.5625 1288.69921875 C-472.26947731 1283.10469681 -478.84785849 1277.40579026 -485.26953125 1271.484375 C-487.43009974 1269.51853586 -489.61161094 1267.59110967 -491.81640625 1265.67578125 C-496.00603591 1262.01975274 -500.08009641 1258.25248275 -504.125 1254.4375 C-504.85638184 1253.74785156 -505.58776367 1253.05820313 -506.34130859 1252.34765625 C-524.52357286 1235.13106611 -524.52357286 1235.13106611 -532.0390625 1226.2421875 C-534.30213454 1223.65453143 -536.65301272 1221.16151011 -539.01220703 1218.66162109 C-544.47759699 1212.86959708 -549.7580417 1207.02784666 -554.73046875 1200.80078125 C-556.89950114 1198.12402356 -559.12806714 1195.51518629 -561.38574219 1192.91357422 C-567.54189209 1185.81792379 -573.38194133 1178.52890927 -579 1171 C-579.77682129 1169.96214355 -579.77682129 1169.96214355 -580.56933594 1168.90332031 C-594.13097885 1150.74987769 -607.14647254 1132.31928508 -619 1113 C-619.39493652 1112.35788574 -619.78987305 1111.71577148 -620.19677734 1111.05419922 C-622.84664712 1106.73108989 -625.43492802 1102.37385739 -628 1098 C-628.4321582 1097.26716797 -628.86431641 1096.53433594 -629.30957031 1095.77929688 C-654.65526734 1052.66124711 -674.8515835 1007.30425583 -691 960 C-691.3825293 958.87980469 -691.76505859 957.75960937 -692.15917969 956.60546875 C-710.43841585 902.56250965 -720.94569582 846.66811778 -726.23828125 789.94140625 C-726.30153091 789.27294174 -726.36478058 788.60447723 -726.4299469 787.91575623 C-727.61129228 774.81683849 -728.16557506 761.77019391 -728.203125 748.62109375 C-728.21014747 747.09092683 -728.21723428 745.56076021 -728.22438049 744.03059387 C-728.24378326 739.16622496 -728.24881477 734.3019037 -728.25 729.4375 C-728.25044186 728.60860764 -728.25088371 727.77971527 -728.25133896 726.92570496 C-728.25814526 702.58093206 -728.09576348 678.37243085 -725.25323486 654.16217041 C-724.98780503 651.89587687 -724.73343373 649.62850209 -724.47998047 647.36083984 C-715.83593746 570.99615905 -695.58709088 495.68572286 -661 421 C-660.56929199 420.07300293 -660.13858398 419.14600586 -659.69482422 418.19091797 C-647.09003722 391.12991876 -632.78275901 365.30299776 -617 340 C-616.0416626 338.45530029 -616.0416626 338.45530029 -615.06396484 336.87939453 C-608.21614084 325.86083509 -601.16061137 315.11657414 -593.33105469 304.77099609 C-591.47080751 302.29589833 -589.65179908 299.79153637 -587.83032227 297.2878418 C-579.55396336 285.9214488 -571.00302906 274.80363488 -562 264 C-561.57074219 263.484375 -561.14148438 262.96875 -560.69921875 262.4375 C-555.10469681 255.73052269 -549.40579026 249.15214151 -543.484375 242.73046875 C-541.51853586 240.56990026 -539.59110967 238.38838906 -537.67578125 236.18359375 C-534.01975274 231.99396409 -530.25248275 227.91990359 -526.4375 223.875 C-525.74785156 223.14361816 -525.05820312 222.41223633 -524.34765625 221.65869141 C-507.13106611 203.47642714 -507.13106611 203.47642714 -498.2421875 195.9609375 C-495.65453143 193.69786546 -493.16151011 191.34698728 -490.66162109 188.98779297 C-484.86959708 183.52240301 -479.02784666 178.2419583 -472.80078125 173.26953125 C-470.12402356 171.10049886 -467.51518629 168.87193286 -464.91357422 166.61425781 C-457.81792379 160.45810791 -450.52890927 154.61805867 -443 149 C-441.96214355 148.22317871 -441.96214355 148.22317871 -440.90332031 147.43066406 C-422.74987769 133.86902115 -404.31928508 120.85352746 -385 109 C-384.35788574 108.60506348 -383.71577148 108.21012695 -383.05419922 107.80322266 C-378.73108989 105.15335288 -374.37385739 102.56507198 -370 100 C-369.26716797 99.5678418 -368.53433594 99.13568359 -367.77929688 98.69042969 C-324.66124711 73.34473266 -279.30425583 53.1484165 -232 37 C-230.87980469 36.6174707 -229.75960938 36.23494141 -228.60546875 35.84082031 C-174.56250965 17.56158415 -118.66811778 7.05430418 -61.94140625 1.76171875 C-61.27294174 1.69846909 -60.60447723 1.63521942 -59.91575623 1.5700531 C-39.80062407 -0.24406001 -20.34845964 0 0 0 Z M-35.75 307.1875 C-36.85998856 307.2849501 -36.85998856 307.2849501 -37.99240112 307.3843689 C-116.69821231 314.43279196 -194.78824722 343.8278306 -257 393 C-257.81597656 393.63679688 -258.63195312 394.27359375 -259.47265625 394.9296875 C-274.77685804 407.00812251 -289.06758628 419.99842216 -302.875 433.75 C-303.67180176 434.54212891 -304.46860352 435.33425781 -305.28955078 436.15039062 C-310.06514797 440.93901125 -314.61005831 445.85686857 -319 451 C-319.88899575 452.02111826 -320.77829518 453.04197225 -321.66796875 454.0625 C-340.53573922 476.06027271 -356.90280786 500.34512484 -370.78173828 525.7734375 C-371.87749202 527.77609763 -372.99460053 529.76453556 -374.12109375 531.75 C-406.71898055 589.96743509 -422.20407739 659.91852339 -422.25 726.3125 C-422.25067474 727.20095612 -422.25134949 728.08941223 -422.25204468 729.00479126 C-422.14302412 820.43839381 -391.92655874 912.97753196 -335 985 C-334.36320312 985.81597656 -333.72640625 986.63195312 -333.0703125 987.47265625 C-320.99187749 1002.77685804 -308.00157784 1017.06758628 -294.25 1030.875 C-293.45787109 1031.67180176 -292.66574219 1032.46860352 -291.84960938 1033.28955078 C-287.06098875 1038.06514797 -282.14313143 1042.61005831 -277 1047 C-275.97888174 1047.88899575 -274.95802775 1048.77829518 -273.9375 1049.66796875 C-251.93972729 1068.53573922 -227.65487516 1084.90280786 -202.2265625 1098.78173828 C-200.22390237 1099.87749202 -198.23546444 1100.99460053 -196.25 1102.12109375 C-138.03256491 1134.71898055 -68.08147661 1150.20407739 -1.6875 1150.25 C-0.35481583 1150.25101212 -0.35481583 1150.25101212 1.00479126 1150.25204468 C92.43839381 1150.14302412 184.97753196 1119.92655874 257 1063 C257.81597656 1062.36320312 258.63195312 1061.72640625 259.47265625 1061.0703125 C274.77685804 1048.99187749 289.06758628 1036.00157784 302.875 1022.25 C303.67180176 1021.45787109 304.46860352 1020.66574219 305.28955078 1019.84960938 C310.06514797 1015.06098875 314.61005831 1010.14313143 319 1005 C319.88899575 1003.97888174 320.77829518 1002.95802775 321.66796875 1001.9375 C340.53573922 979.93972729 356.90280786 955.65487516 370.78173828 930.2265625 C371.87749202 928.22390237 372.99460053 926.23546444 374.12109375 924.25 C404.37043157 870.22690114 422.30255081 802.13409106 422.02490234 740.02270508 C422.02310471 739.24633949 422.02130707 738.46997391 422.01945496 737.67008209 C422.01481684 735.78004929 422.0076732 733.89002291 422 732 C395.02084915 731.85121265 368.04168047 731.70581252 341.0625 731.5625 C340.02504765 731.55698576 338.98759529 731.55147153 337.91870499 731.5457902 C258.46193396 731.12370387 179.00495508 730.77036331 99.54773778 730.44586295 C97.49322632 730.43747234 95.43871488 730.42907806 93.38420343 730.42068338 C58.58947665 730.27853772 23.79474247 730.13825373 -11 730 C-11.02078473 717.15120322 -11.04083002 704.30243006 -11.03125 691.45361328 C-11.03069107 690.70362824 -11.03013214 689.95364319 -11.02955627 689.18093133 C-11.00824438 664.91081913 -10.88891033 640.6409419 -10.78125 616.37109375 C-10.77576354 615.12927865 -10.77027708 613.88746355 -10.76462436 612.60801768 C-10.71311901 600.95152957 -10.66109857 589.29504379 -10.6085577 577.6385603 C-10.47408398 547.80333557 -10.34441613 517.968092 -10.22265625 488.1328125 C-10.21994592 487.46929863 -10.21723558 486.80578475 -10.21444312 486.1221644 C-10.03178228 441.35221913 -9.90683332 396.58283214 -9.9375 351.8125 C-9.93835602 350.55772228 -9.93921204 349.30294456 -9.94009399 348.01014328 C-9.9504612 334.00674307 -9.96855227 320.00336904 -10 306 C-18.63643184 305.92436529 -27.15152394 306.42951524 -35.75 307.1875 Z " fill="#000000" transform="translate(728,0)"/>
<path d="M0 0 C89.24239762 3.62608277 176.68972038 30.2936539 249 84 C250.07072754 84.79470703 250.07072754 84.79470703 251.16308594 85.60546875 C263.48366617 94.79813916 275.26053936 104.49789503 286.62890625 114.84765625 C288.16663754 116.24352106 289.7155623 117.62719097 291.27734375 118.99609375 C296.77081293 123.8314435 302.00447349 128.89911969 307.1875 134.0625 C307.85281738 134.7232251 308.51813477 135.3839502 309.20361328 136.06469727 C313.67177677 140.54674393 317.87932814 145.1983567 322 150 C322.98515067 151.12936565 323.97080375 152.25829332 324.95703125 153.38671875 C331.60120498 161.04487657 337.95453999 168.85927575 344 177 C344.49612793 177.66483398 344.99225586 178.32966797 345.50341797 179.01464844 C400.30766152 252.72795848 430.26379763 341.38439642 433 433 C429.37 433 425.74 433 422 433 C422 434.32 422 435.64 422 437 C331.00446539 437.10930796 240.00938468 437.09042986 109.8191455 436.61044246 C100.93995141 436.57526422 92.06075144 436.54219016 83.18154497 436.51029928 C70.78514976 436.46575359 58.38877611 436.41749546 45.99241889 436.36322176 C39.95883427 436.33682112 33.9252535 436.31187935 27.89164734 436.29090881 C22.34394603 436.27149986 16.7962857 436.24742303 11.24862087 436.21950519 C9.22618988 436.21012804 7.20375019 436.20245778 5.181306 436.19658196 C2.44667712 436.18836933 -0.28785235 436.17411849 -3.02244568 436.15821838 C-4.22816554 436.15675119 -4.22816554 436.15675119 -5.45824337 436.15525436 C-10.8858362 436.1141638 -10.8858362 436.1141638 -12 435 C-12.0974779 432.03530133 -12.12529561 429.09432853 -12.11303711 426.12915039 C-12.11274726 424.65360215 -12.11274726 424.65360215 -12.11245155 423.14824486 C-12.11008603 419.69385595 -12.09996666 416.23953071 -12.08984375 412.78515625 C-12.08574643 410.2047581 -12.08192899 407.6243595 -12.07835388 405.04396057 C-12.06420042 396.30571915 -12.03715927 387.56752595 -12.00905132 378.82931995 C-11.99964441 375.88884603 -11.99050966 372.94837135 -11.98142242 370.00789642 C-11.87222316 334.85071081 -11.73366562 299.69365106 -11.58773198 264.53660142 C-11.56799449 259.77655704 -11.54848616 255.01651175 -11.52910233 250.25646591 C-11.20425347 170.50273443 -10.83132111 90.75037614 -10 11 C-6.7 11 -3.4 11 0 11 C0 7.37 0 3.74 0 0 Z " fill="#C9F200" transform="translate(728,295)"/>
</svg>
