<svg width="179" height="46" viewBox="0 0 179 46" fill="none" xmlns="http://www.w3.org/2000/svg">
<g clip-path="url(#clip0_20018_566)">
<path d="M39.6832 39.3574L47.9996 25.9075L40.6856 24.6104L34.1368 25.9075L25.8203 39.3574H39.6832Z" fill="#C9F31D"/>
<path d="M20.7178 4.21688L34.1371 25.9104H48L36.4263 7.19603C30.9049 -1.73266 17.0982 -1.73266 11.5737 7.19603L0 25.9075H7.3015L20.7178 4.21688Z" fill="#FFFF00"/>
<path d="M20.724 4.22261L22.3573 1.57869C22.5853 1.2114 22.832 0.864509 23.085 0.526367C18.566 0.788719 14.1595 3.01287 11.5706 7.19592L0 25.9074H7.30149L20.7178 4.21678V4.22552L20.724 4.22261Z" fill="#C9F31D"/>
<path d="M21.8523 16.3737L23.3381 13.5714C23.5455 13.1821 23.7699 12.8144 24 12.4561C19.8892 12.7341 15.8807 15.0915 13.5256 19.525L3 39.3572H9.64204L21.8494 16.3644V16.3737H21.8523Z" fill="#FFFF00"/>
<path d="M25.8207 34.9379H0V25.9072H31.6138L25.8207 34.9379Z" fill="#C9F31D"/>
</g>
<path d="M68.04 19.26V13.98C68.04 13.6067 67.96 13.3533 67.8 13.22C67.64 13.06 67.36 12.98 66.96 12.98H60.16V9.06H68.68C70.4933 9.06 71.7867 9.46 72.56 10.26C73.36 11.0333 73.76 12.1133 73.76 13.5V19.26H68.04ZM68.04 29.58V18.62H73.76V30.06C73.76 31.4467 73.36 32.54 72.56 33.34C71.7867 34.1133 70.4933 34.5 68.68 34.5H60.16V30.58H66.96C67.36 30.58 67.64 30.5 67.8 30.34C67.96 30.18 68.04 29.9267 68.04 29.58ZM58.04 9.06H63.8V34.5H58.04V9.06ZM82.6541 34.5H77.0541V14.7H82.6541V34.5ZM76.9741 12.06V7.74H82.7741V12.06H76.9741ZM85.6403 24.1H91.2403V28.46C91.2403 28.8067 91.3203 29.06 91.4803 29.22C91.6403 29.38 91.9203 29.46 92.3203 29.46H93.2403C93.667 29.46 93.9736 29.3667 94.1603 29.18C94.347 28.9667 94.4403 28.6333 94.4403 28.18V27.14H94.6403V30.34C94.6403 31.4067 94.347 32.2333 93.7603 32.82C93.2003 33.38 92.3736 33.66 91.2803 33.66H90.3203C88.667 33.66 87.467 33.2733 86.7203 32.5C86.0003 31.7 85.6403 30.6067 85.6403 29.22V24.1ZM91.2403 25.1H85.6403V19.14C85.6403 17.78 86.0003 16.7 86.7203 15.9C87.467 15.1 88.667 14.7 90.3203 14.7H91.2803C92.3736 14.7 93.2003 14.9933 93.7603 15.58C94.347 16.14 94.6403 16.9533 94.6403 18.02V21.34H94.4403V20.18C94.4403 19.7267 94.347 19.4067 94.1603 19.22C93.9736 19.0067 93.667 18.9 93.2403 18.9H92.3203C91.9203 18.9 91.6403 18.98 91.4803 19.14C91.3203 19.2733 91.2403 19.5267 91.2403 19.9V25.1ZM94.4403 34.74V33.22H100V35.38C100 36.74 99.6136 37.82 98.8403 38.62C98.067 39.42 96.7736 39.82 94.9603 39.82H86.4803V35.74H93.3603C93.7603 35.74 94.0403 35.66 94.2003 35.5C94.3603 35.3667 94.4403 35.1133 94.4403 34.74ZM100 33.7H94.4403V18.02L94.5203 17.98V14.7H100V33.7ZM108.904 34.5H103.304V14.7H108.904V34.5ZM103.224 12.06V7.74H109.024V12.06H103.224ZM112.33 9.06H118.09V34.5H112.33V9.06ZM124.77 20.26V24.22H115.01V20.26H124.77ZM126.05 9.06V13.26H114.61V9.06H126.05ZM133.787 34.5H128.187V7.74H133.787V34.5ZM146.053 26.34V19.7C146.053 19.3533 145.973 19.1133 145.813 18.98C145.653 18.82 145.373 18.74 144.973 18.74H144.133V14.7H146.613C148.426 14.7 149.693 15.1 150.413 15.9C151.16 16.7 151.533 17.78 151.533 19.14V26.34H146.053ZM146.053 29.5V25.38H151.533V30.06C151.533 31.4467 151.16 32.54 150.413 33.34C149.693 34.1133 148.426 34.5 146.613 34.5H144.053V30.5H144.973C145.373 30.5 145.653 30.42 145.813 30.26C145.973 30.1 146.053 29.8467 146.053 29.5ZM142.413 19.7V26.34H136.893V19.14C136.893 17.78 137.266 16.7 138.013 15.9C138.76 15.1 140.04 14.7 141.853 14.7H144.293V18.74H143.493C143.093 18.74 142.813 18.82 142.653 18.98C142.493 19.1133 142.413 19.3533 142.413 19.7ZM142.413 25.26V29.5C142.413 29.8467 142.493 30.1 142.653 30.26C142.813 30.42 143.093 30.5 143.493 30.5H144.253V34.5H141.853C140.04 34.5 138.76 34.1133 138.013 33.34C137.266 32.54 136.893 31.4467 136.893 30.06V25.26H142.413ZM172.751 14.7H177.951L173.911 34.5H167.911L165.511 21.62L163.071 34.5H157.111L153.231 14.7H158.431L160.351 28.78L162.911 14.7H168.231L170.591 28.7L172.751 14.7Z" fill="white"/>
<defs>
<clipPath id="clip0_20018_566">
<rect width="48" height="38.8571" fill="white" transform="translate(0 0.5)"/>
</clipPath>
</defs>
</svg>
